<?xml version="1.0" standalone="no"?>
<!DOCTYPE svg PUBLIC "-//W3C//DTD SVG 20010904//EN"
 "http://www.w3.org/TR/2001/REC-SVG-20010904/DTD/svg10.dtd">
<svg version="1.0" xmlns="http://www.w3.org/2000/svg"
 width="800.000000pt" height="800.000000pt" viewBox="0 0 800.000000 800.000000"
 preserveAspectRatio="xMidYMid meet">

<g transform="translate(0.000000,800.000000) scale(0.100000,-0.100000)"
fill="#000000" stroke="none">
<path d="M3925 6919 c-203 -18 -348 -51 -559 -126 -95 -34 -341 -154 -397
-194 -15 -10 -30 -19 -33 -19 -10 0 -187 -130 -237 -174 -25 -23 -76 -67 -113
-99 -60 -53 -91 -88 -219 -245 -48 -59 -127 -171 -127 -179 0 -4 -6 -14 -14
-22 -22 -26 -113 -204 -147 -288 -41 -103 -83 -231 -104 -319 -9 -39 -20 -76
-24 -82 -3 -6 -29 -16 -56 -22 -119 -28 -265 -72 -297 -90 -10 -6 -22 -10 -28
-10 -11 0 -124 -55 -194 -94 -205 -117 -416 -289 -552 -451 -61 -73 -164 -211
-164 -220 0 -3 -13 -26 -29 -49 -30 -42 -104 -185 -136 -261 -9 -22 -21 -49
-26 -60 -29 -69 -78 -237 -104 -360 -56 -267 -57 -594 -3 -855 11 -52 22 -106
25 -120 2 -14 8 -34 13 -45 4 -11 23 -67 41 -125 29 -91 105 -255 178 -385 31
-53 92 -139 103 -143 4 -2 8 -8 8 -14 0 -27 233 -275 355 -377 127 -106 268
-198 417 -270 91 -44 235 -101 255 -101 7 0 21 -4 31 -9 25 -14 176 -50 257
-61 149 -21 384 -30 720 -28 l350 3 -2 25 c-3 26 -22 93 -53 190 -10 30 -25
82 -35 115 -25 88 -39 130 -69 199 -21 47 -17 50 73 66 61 10 83 16 166 42 56
18 70 24 170 73 149 73 300 192 381 301 16 22 32 41 35 44 10 8 119 204 119
213 0 5 6 23 14 40 60 137 86 302 86 542 l0 175 -604 0 c-439 0 -607 -3 -612
-11 -7 -13 -13 -396 -6 -416 3 -10 78 -13 328 -13 362 0 338 6 313 -71 -32
-97 -83 -182 -149 -248 -127 -128 -281 -179 -504 -167 -61 3 -114 10 -120 16
-5 5 -18 10 -28 10 -10 0 -26 4 -36 9 -9 4 -44 21 -77 37 -145 70 -287 258
-337 444 -17 62 -37 204 -37 255 0 52 21 193 37 255 49 180 175 351 319 430
50 28 56 30 168 61 138 37 316 19 451 -47 69 -34 193 -151 224 -211 l22 -43
305 0 304 0 -6 23 c-32 121 -32 120 -69 200 -93 203 -283 396 -491 500 -84 41
-127 58 -230 85 -125 34 -309 47 -467 34 -167 -14 -241 -31 -371 -83 -280
-113 -497 -315 -626 -584 -46 -96 -57 -126 -79 -200 -37 -127 -41 -149 -53
-293 -18 -199 -3 -353 53 -557 51 -183 173 -389 313 -530 60 -60 201 -161 270
-194 28 -13 58 -27 67 -32 10 -5 23 -9 30 -9 25 -1 90 -37 79 -44 -6 -4 -19
-2 -30 4 -11 5 -33 10 -50 10 -16 0 -51 4 -78 10 -26 5 -84 17 -128 26 -178
35 -335 101 -490 205 -158 106 -344 293 -405 409 -7 14 -16 27 -20 30 -11 7
-94 187 -114 245 -10 28 -21 59 -26 70 -10 27 -27 103 -45 205 -27 155 -14
472 25 590 4 14 13 45 20 70 73 262 234 516 445 702 237 209 550 349 870 388
169 20 173 21 179 44 3 11 6 38 6 59 0 21 4 57 9 80 5 23 15 69 21 102 13 64
55 217 69 250 5 11 21 52 37 90 53 133 147 295 232 400 81 101 238 244 355
324 130 89 370 192 532 229 228 53 581 53 770 0 94 -26 196 -63 283 -104 51
-24 95 -44 97 -44 7 0 139 -84 195 -124 102 -73 270 -253 352 -376 75 -114
150 -259 183 -355 9 -27 21 -59 25 -70 5 -11 11 -31 15 -45 3 -14 12 -48 20
-76 25 -92 38 -206 42 -389 2 -99 9 -184 14 -190 6 -5 51 -13 102 -17 270 -21
456 -82 643 -210 101 -69 257 -234 335 -353 138 -211 203 -388 230 -630 12
-105 6 -348 -11 -420 -37 -157 -56 -215 -102 -315 -71 -154 -154 -269 -285
-397 -66 -64 -192 -163 -208 -163 -3 0 -29 -16 -58 -35 -28 -19 -62 -35 -74
-35 l-23 0 -2 1153 -3 1152 -277 3 -278 2 -2 -487 -3 -488 -485 0 -485 0 -3
488 -2 487 -274 0 c-210 0 -275 -3 -278 -12 -3 -7 -6 -569 -7 -1248 -2 -1294
-1 -1247 -43 -1291 -32 -34 -126 -148 -263 -319 -81 -102 -163 -202 -183 -222
-29 -30 -32 -38 -20 -43 31 -12 2180 0 2233 13 28 6 88 18 135 27 94 18 101
20 251 69 93 31 140 50 279 114 19 9 58 31 87 49 29 18 55 33 58 33 9 0 138
92 225 161 81 64 252 233 313 309 74 91 181 256 236 364 33 66 61 124 61 128
0 5 9 27 19 51 45 98 83 240 117 442 17 102 14 484 -5 590 -22 125 -40 200
-72 310 -31 105 -38 122 -113 275 -84 172 -130 244 -252 395 -65 81 -221 239
-284 290 -172 135 -461 281 -590 297 -23 3 -26 9 -37 83 -13 88 -27 168 -41
230 -9 41 -66 215 -81 250 -5 11 -17 38 -26 60 -61 140 -160 322 -208 380 -4
6 -26 35 -48 65 -122 164 -292 335 -464 466 -148 113 -387 241 -570 307 -239
86 -382 117 -635 136 -143 11 -266 11 -395 0z m1853 -4756 l-3 -498 -485 0
-485 0 -3 485 c-1 267 0 491 3 498 3 9 111 12 490 12 l485 0 -2 -497z"/>
</g>
</svg>
